{
  "accessors": [
    {
      "bufferView": 2,
      "componentType": 5126,
      "count": 1127,
      "max": [
        100.47930145263672,
        15.995201110839844,
        18.739795684814453
      ],
      "min": [
        -58.98469543457031,
        -29.426101684570313,
        -31.377700805664063
      ],
      "type": "VEC3"
    },
    {
      "bufferView": 2,
      "byteOffset": 13524,
      "componentType": 5126,
      "count": 1127,
      "max": [
        0.9891572594642639,
        0.9979091286659241,
        0.9983845353126526
      ],
      "min": [
        -0.9930847883224487,
        -0.9999026656150818,
        -0.9930704832077026
      ],
      "type": "VEC3"
    },
    {
      "bufferView": 3,
      "componentType": 5126,
      "count": 1127,
      "max": [
        0.9945915341377258,
        0.8433615565299988,
        0.9791687726974487,
        1.0
      ],
      "min": [
        -0.9992302656173706,
        -0.9998434782028198,
        -0.6777022480964661,
        -1.0
      ],
      "type": "VEC4"
    },
    {
      "bufferView": 1,
      "componentType": 5126,
      "count": 1127,
      "max": [
        0.9842000007629395,
        0.751800000667572
      ],
      "min": [
        0.019999999552965164,
        0.052299998700618744
      ],
      "type": "VEC2"
    },
    {
      "bufferView": 0,
      "componentType": 5125,
      "count": 6144,
      "type": "SCALAR"
    },
    {
      "bufferView": 2,
      "byteOffset": 27048,
      "componentType": 5126,
      "count": 1127,
      "max": [
        101.22100067138672,
        16.003000259399414,
        122.92940521240234
      ],
      "min": [
        -59.15570068359375,
        -29.458499908447266,
        76.65950012207031
      ],
      "type": "VEC3"
    },
    {
      "bufferView": 2,
      "byteOffset": 40572,
      "componentType": 5126,
      "count": 1127,
      "max": [
        0.9920470118522644,
        0.9978946447372437,
        0.995647132396698
      ],
      "min": [
        -0.9954163432121277,
        -0.9998928904533386,
        -0.9985883831977844
      ],
      "type": "VEC3"
    },
    {
      "bufferView": 3,
      "byteOffset": 18032,
      "componentType": 5126,
      "count": 1127,
      "max": [
        0.996850311756134,
        0.8835808038711548,
        0.6736689805984497,
        1.0
      ],
      "min": [
        -0.9986269474029541,
        -0.999929666519165,
        -0.9802451729774475,
        -1.0
      ],
      "type": "VEC4"
    },
    {
      "bufferView": 1,
      "byteOffset": 9016,
      "componentType": 5126,
      "count": 1127,
      "max": [
        0.9800000190734863,
        0.7495999932289124
      ],
      "min": [
        0.01850000023841858,
        0.05640000104904175
      ],
      "type": "VEC2"
    },
    {
      "bufferView": 0,
      "byteOffset": 24576,
      "componentType": 5125,
      "count": 6144,
      "type": "SCALAR"
    },
    {
      "bufferView": 2,
      "byteOffset": 54096,
      "componentType": 5126,
      "count": 2059,
      "max": [
        -60.19450378417969,
        17.722000122070313,
        38.01249694824219
      ],
      "min": [
        -73.5864028930664,
        -26.869600296020508,
        -24.41521453857422
      ],
      "type": "VEC3"
    },
    {
      "bufferView": 2,
      "byteOffset": 78804,
      "componentType": 5126,
      "count": 2059,
      "max": [
        0.9999944567680359,
        0.9998877644538879,
        0.9944966435432434
      ],
      "min": [
        -0.9999449849128723,
        -0.9998896718025208,
        -0.9992584586143494
      ],
      "type": "VEC3"
    },
    {
      "bufferView": 3,
      "byteOffset": 36064,
      "componentType": 5126,
      "count": 2059,
      "max": [
        0.9998816251754761,
        0.9274277091026306,
        0.9999818205833435,
        1.0
      ],
      "min": [
        -0.9997673630714417,
        -0.9316331148147583,
        -0.9999784827232361,
        -1.0
      ],
      "type": "VEC4"
    },
    {
      "bufferView": 1,
      "byteOffset": 18032,
      "componentType": 5126,
      "count": 2059,
      "max": [
        0.9699000120162964,
        0.9546999931335449
      ],
      "min": [
        0.018200000748038292,
        0.01360000018030405
      ],
      "type": "VEC2"
    },
    {
      "bufferView": 0,
      "byteOffset": 49152,
      "componentType": 5125,
      "count": 11520,
      "type": "SCALAR"
    },
    {
      "bufferView": 2,
      "byteOffset": 103512,
      "componentType": 5126,
      "count": 2059,
      "max": [
        -60.31700134277344,
        17.709402084350586,
        116.31951141357422
      ],
      "min": [
        -73.37200927734375,
        -26.92449951171875,
        53.92719650268555
      ],
      "type": "VEC3"
    },
    {
      "bufferView": 2,
      "byteOffset": 128220,
      "componentType": 5126,
      "count": 2059,
      "max": [
        0.9999931454658508,
        0.9999452233314514,
        0.9982048869132996
      ],
      "min": [
        -0.9999863505363464,
        -0.9997611045837402,
        -0.9929696321487427
      ],
      "type": "VEC3"
    },
    {
      "bufferView": 3,
      "byteOffset": 69008,
      "componentType": 5126,
      "count": 2059,
      "max": [
        0.999466598033905,
        0.9984831809997559,
        0.9998050928115845,
        1.0
      ],
      "min": [
        -0.6164476871490479,
        -0.9868340492248535,
        -0.9992164969444275,
        -1.0
      ],
      "type": "VEC4"
    },
    {
      "bufferView": 1,
      "byteOffset": 34504,
      "componentType": 5126,
      "count": 2059,
      "max": [
        0.9424999952316284,
        0.9745000004768372
      ],
      "min": [
        0.025100000202655792,
        0.013500000350177288
      ],
      "type": "VEC2"
    },
    {
      "bufferView": 0,
      "byteOffset": 95232,
      "componentType": 5125,
      "count": 11520,
      "type": "SCALAR"
    },
    {
      "bufferView": 2,
      "byteOffset": 152928,
      "componentType": 5126,
      "count": 6336,
      "max": [
        -55.9866943359375,
        20.0231990814209,
        124.694091796875
      ],
      "min": [
        -74.10710144042969,
        -29.6372013092041,
        -33.35301208496094
      ],
      "type": "VEC3"
    },
    {
      "bufferView": 2,
      "byteOffset": 228960,
      "componentType": 5126,
      "count": 6336,
      "max": [
        0.9988232254981995,
        0.9997038841247559,
        1.0
      ],
      "min": [
        -0.9988279938697815,
        -0.9998194575309753,
        -1.0
      ],
      "type": "VEC3"
    },
    {
      "bufferView": 3,
      "byteOffset": 101952,
      "componentType": 5126,
      "count": 6336,
      "max": [
        0.9998993277549744,
        0.9999893307685852,
        0.9999999403953552,
        1.0
      ],
      "min": [
        -0.9940494894981384,
        -0.9999958276748657,
        -1.0,
        -1.0
      ],
      "type": "VEC4"
    },
    {
      "bufferView": 1,
      "byteOffset": 50976,
      "componentType": 5126,
      "count": 6336,
      "max": [
        0.9800000190734863,
        0.9797000288963318
      ],
      "min": [
        0.019999999552965164,
        0.019999999552965164
      ],
      "type": "VEC2"
    },
    {
      "bufferView": 0,
      "byteOffset": 141312,
      "componentType": 5125,
      "count": 29664,
      "type": "SCALAR"
    }
  ],
  "asset": {
    "extras": {
      "author": "Athos Simões (https://sketchfab.com/unnickedbr)",
      "license": "CC-BY-NC-4.0 (http://creativecommons.org/licenses/by-nc/4.0/)",
      "source": "https://sketchfab.com/3d-models/sunglass-74052670eda146f99fb1b31744af559b",
      "title": "Sunglass"
    },
    "generator": "Sketchfab-12.68.0",
    "version": "2.0"
  },
  "bufferViews": [
    {
      "buffer": 0,
      "byteLength": 259968,
      "name": "floatBufferViews",
      "target": 34963
    },
    {
      "buffer": 0,
      "byteLength": 101664,
      "byteOffset": 259968,
      "byteStride": 8,
      "name": "floatBufferViews",
      "target": 34962
    },
    {
      "buffer": 0,
      "byteLength": 304992,
      "byteOffset": 361632,
      "byteStride": 12,
      "name": "floatBufferViews",
      "target": 34962
    },
    {
      "buffer": 0,
      "byteLength": 203328,
      "byteOffset": 666624,
      "byteStride": 16,
      "name": "floatBufferViews",
      "target": 34962
    }
  ],
  "buffers": [
    {
      "byteLength": 869952,
      "uri": "scene.bin"
    }
  ],
  "images": [
    {
      "uri": "textures/Armacao_baseColor.jpeg"
    },
    {
      "uri": "textures/Armacao_metallicRoughness.png"
    },
    {
      "uri": "textures/Armacao_normal.png"
    },
    {
      "uri": "textures/LenteE_baseColor.jpeg"
    },
    {
      "uri": "textures/LenteE_metallicRoughness.png"
    },
    {
      "uri": "textures/LenteE_normal.png"
    },
    {
      "uri": "textures/LenteD_baseColor.jpeg"
    },
    {
      "uri": "textures/LenteD_metallicRoughness.png"
    },
    {
      "uri": "textures/LenteD_normal.png"
    },
    {
      "uri": "textures/HasteE_baseColor.jpeg"
    },
    {
      "uri": "textures/HasteE_metallicRoughness.png"
    },
    {
      "uri": "textures/HasteE_normal.png"
    },
    {
      "uri": "textures/HasteD_baseColor.jpeg"
    },
    {
      "uri": "textures/HasteD_metallicRoughness.png"
    },
    {
      "uri": "textures/HasteD_normal.png"
    }
  ],
  "materials": [
    {
      "doubleSided": true,
      "name": "Armacao",
      "normalTexture": {
        "index": 2
      },
      "occlusionTexture": {
        "index": 1
      },
      "pbrMetallicRoughness": {
        "baseColorTexture": {
          "index": 0
        },
        "metallicRoughnessTexture": {
          "index": 1
        }
      }
    },
    {
      "doubleSided": true,
      "name": "LenteE",
      "normalTexture": {
        "index": 5
      },
      "occlusionTexture": {
        "index": 4
      },
      "pbrMetallicRoughness": {
        "baseColorTexture": {
          "index": 3
        },
        "metallicRoughnessTexture": {
          "index": 4
        }
      }
    },
    {
      "doubleSided": true,
      "name": "LenteD",
      "normalTexture": {
        "index": 8
      },
      "occlusionTexture": {
        "index": 7
      },
      "pbrMetallicRoughness": {
        "baseColorTexture": {
          "index": 6
        },
        "metallicRoughnessTexture": {
          "index": 7
        }
      }
    },
    {
      "doubleSided": true,
      "name": "HasteE",
      "normalTexture": {
        "index": 11
      },
      "occlusionTexture": {
        "index": 10
      },
      "pbrMetallicRoughness": {
        "baseColorTexture": {
          "index": 9
        },
        "metallicRoughnessTexture": {
          "index": 10
        }
      }
    },
    {
      "doubleSided": true,
      "name": "HasteD",
      "normalTexture": {
        "index": 14
      },
      "occlusionTexture": {
        "index": 13
      },
      "pbrMetallicRoughness": {
        "baseColorTexture": {
          "index": 12
        },
        "metallicRoughnessTexture": {
          "index": 13
        }
      }
    }
  ],
  "meshes": [
    {
      "name": "defaultMaterial",
      "primitives": [
        {
          "attributes": {
            "NORMAL": 1,
            "POSITION": 0,
            "TANGENT": 2,
            "TEXCOORD_0": 3
          },
          "indices": 4,
          "material": 4,
          "mode": 4
        }
      ]
    },
    {
      "name": "defaultMaterial",
      "primitives": [
        {
          "attributes": {
            "NORMAL": 6,
            "POSITION": 5,
            "TANGENT": 7,
            "TEXCOORD_0": 8
          },
          "indices": 9,
          "material": 3,
          "mode": 4
        }
      ]
    },
    {
      "name": "defaultMaterial",
      "primitives": [
        {
          "attributes": {
            "NORMAL": 11,
            "POSITION": 10,
            "TANGENT": 12,
            "TEXCOORD_0": 13
          },
          "indices": 14,
          "material": 2,
          "mode": 4
        }
      ]
    },
    {
      "name": "defaultMaterial",
      "primitives": [
        {
          "attributes": {
            "NORMAL": 16,
            "POSITION": 15,
            "TANGENT": 17,
            "TEXCOORD_0": 18
          },
          "indices": 19,
          "material": 1,
          "mode": 4
        }
      ]
    },
    {
      "name": "defaultMaterial",
      "primitives": [
        {
          "attributes": {
            "NORMAL": 21,
            "POSITION": 20,
            "TANGENT": 22,
            "TEXCOORD_0": 23
          },
          "indices": 24,
          "material": 0,
          "mode": 4
        }
      ]
    }
  ],
  "nodes": [
    {
      "children": [
        1
      ],
      "matrix": [
        0.0010467444080859423,
        0.0,
        0.0,
        0.0,
        0.0,
        2.324239485509288e-19,
        -0.0010467444080859423,
        0.0,
        0.0,
        0.0010467444080859423,
        2.324239485509288e-19,
        0.0,
        0.0,
        0.0,
        0.0,
        1.0
      ],
      "name": "Sketchfab_model"
    },
    {
      "children": [
        2,
        4,
        6,
        8,
        10
      ],
      "matrix": [
        1.0,
        0.0,
        0.0,
        0.0,
        0.0,
        -4.371139006309477e-08,
        0.999999999999999,
        0.0,
        0.0,
        -0.999999999999999,
        -4.371139006309477e-08,
        0.0,
        0.0,
        0.0,
        0.0,
        1.0
      ],
      "name": "Collada visual scene group"
    },
    {
      "children": [
        3
      ],
      "name": "HasteD"
    },
    {
      "mesh": 0,
      "name": "defaultMaterial"
    },
    {
      "children": [
        5
      ],
      "name": "HasteE"
    },
    {
      "mesh": 1,
      "name": "defaultMaterial"
    },
    {
      "children": [
        7
      ],
      "name": "LenteD"
    },
    {
      "mesh": 2,
      "name": "defaultMaterial"
    },
    {
      "children": [
        9
      ],
      "name": "LenteE"
    },
    {
      "mesh": 3,
      "name": "defaultMaterial"
    },
    {
      "children": [
        11
      ],
      "name": "Armacao"
    },
    {
      "mesh": 4,
      "name": "defaultMaterial"
    }
  ],
  "samplers": [
    {
      "magFilter": 9729,
      "minFilter": 9987,
      "wrapS": 10497,
      "wrapT": 10497
    }
  ],
  "scene": 0,
  "scenes": [
    {
      "name": "Sketchfab_Scene",
      "nodes": [
        0
      ]
    }
  ],
  "textures": [
    {
      "sampler": 0,
      "source": 0
    },
    {
      "sampler": 0,
      "source": 1
    },
    {
      "sampler": 0,
      "source": 2
    },
    {
      "sampler": 0,
      "source": 3
    },
    {
      "sampler": 0,
      "source": 4
    },
    {
      "sampler": 0,
      "source": 5
    },
    {
      "sampler": 0,
      "source": 6
    },
    {
      "sampler": 0,
      "source": 7
    },
    {
      "sampler": 0,
      "source": 8
    },
    {
      "sampler": 0,
      "source": 9
    },
    {
      "sampler": 0,
      "source": 10
    },
    {
      "sampler": 0,
      "source": 11
    },
    {
      "sampler": 0,
      "source": 12
    },
    {
      "sampler": 0,
      "source": 13
    },
    {
      "sampler": 0,
      "source": 14
    }
  ]
}
