<svg version="1.1" id="Layer_1" xmlns="http://www.w3.org/2000/svg" xmlns:xlink="http://www.w3.org/1999/xlink" x="0px" y="0px"
	 width="100%" viewBox="0 0 200 200" enable-background="new 0 0 200 200" xml:space="preserve">
<path fill="#FDFEFE" opacity="1.000000" stroke="none" 
	d="
M201.000000,75.000000 
	C201.000000,117.307175 201.000000,159.114349 201.000000,200.960754 
	C134.401199,200.960754 67.802353,200.960754 1.101760,200.960754 
	C1.101760,134.442993 1.101760,67.885780 1.101760,1.164285 
	C67.666336,1.164285 134.333130,1.164285 201.000000,1.164285 
	C201.000000,25.530710 201.000000,50.015354 201.000000,75.000000 
M59.052486,26.053148 
	C59.052486,26.053148 59.145039,26.088264 58.598820,26.311810 
	C58.448235,26.662649 58.297649,27.013489 58.068489,27.718512 
	C58.068489,27.718512 57.848080,28.006676 57.433605,28.282467 
	C57.185627,28.534679 57.065563,28.837637 57.016907,29.616920 
	C57.016907,29.616920 56.824936,30.000925 56.310215,30.298288 
	C56.246620,31.212915 56.183029,32.127541 56.201946,33.671467 
	C56.194687,34.093937 56.187428,34.516403 55.656273,35.243996 
	C56.097889,36.163708 56.539505,37.083424 57.003849,38.002743 
	C57.003849,38.002743 56.990284,38.021915 57.027863,38.647594 
	C57.426849,39.074684 57.825836,39.501774 58.731003,40.280811 
	C59.820724,41.224190 60.910446,42.167572 62.321819,43.552898 
	C62.664776,43.654823 63.007732,43.756748 63.690662,43.853230 
	C63.690662,43.853230 63.990776,44.013054 64.536575,44.583458 
	C67.127899,44.536411 70.215424,46.786663 72.115677,42.599689 
	C72.115677,42.599689 72.234764,42.225368 72.737823,42.148457 
	C73.062576,42.052799 73.387329,41.957142 74.514771,41.933006 
	C78.540245,40.732998 79.130791,37.533298 78.961082,34.030182 
	C78.845749,31.649300 80.027855,28.478359 75.998093,27.998493 
	C75.998093,27.998493 75.966675,28.043386 75.991570,27.293034 
	C73.775406,21.272053 70.137466,20.035917 63.731251,23.333181 
	C63.731251,23.333181 63.497204,23.201216 62.880451,23.226507 
	C62.589760,23.496313 62.299068,23.766119 61.706184,24.468056 
	C61.231056,24.682886 60.755924,24.897717 59.722240,25.235598 
	C59.511810,25.538519 59.301384,25.841438 59.052486,26.053148 
M144.563019,42.835697 
	C145.436218,41.907021 146.309402,40.978344 147.912491,40.018169 
	C153.087204,38.548119 150.876572,35.738098 149.038330,32.360794 
	C149.007416,31.911495 148.976517,31.462194 149.469955,30.629763 
	C149.457748,24.905838 145.040649,21.568470 140.915161,21.633543 
	C136.716049,21.699776 132.023590,24.680611 128.588196,27.607227 
	C126.070282,29.752249 123.266350,33.494026 126.126038,37.642254 
	C127.693680,39.916252 129.374542,42.164219 131.312103,44.118858 
	C134.141739,46.973457 141.323410,46.328114 144.563019,42.835697 
M111.665863,90.496643 
	C110.112305,88.993454 108.558746,87.490273 106.916931,85.335930 
	C105.938927,85.242897 104.960915,85.149864 103.242683,85.146049 
	C102.498886,85.110031 101.755096,85.074020 100.683197,84.553062 
	C99.788925,85.032394 98.894653,85.511734 97.720520,86.173935 
	C97.720520,86.173935 97.386475,86.160423 96.789757,86.226295 
	C96.539024,86.519539 96.288284,86.812782 95.768898,87.598404 
	C95.199127,88.072533 94.629356,88.546654 93.543587,89.301941 
	C93.415459,89.661331 93.287331,90.020721 93.132721,90.727325 
	C93.132721,90.727325 92.922539,91.004967 92.457741,91.351212 
	C92.370956,91.719902 92.284172,92.088593 92.189926,93.171280 
	C92.076782,94.114906 91.963638,95.058533 91.552826,96.190697 
	C91.656807,96.460083 91.760788,96.729462 92.037979,97.543503 
	C92.073547,97.921288 92.109123,98.299065 92.156593,99.198441 
	C92.368736,99.461166 92.580887,99.723900 93.203537,100.557404 
	C97.375206,106.191841 100.604851,107.156960 108.672783,104.977394 
	C109.378464,104.168762 110.084145,103.360130 110.958946,101.985168 
	C111.378075,101.319427 111.797195,100.653687 112.614182,99.673836 
	C112.699921,99.353844 112.785660,99.033844 112.837723,97.911522 
	C112.876732,96.304604 112.915741,94.697685 112.988655,92.482864 
	C112.688782,91.991447 112.388908,91.500031 111.665863,90.496643 
M64.831894,64.424088 
	C64.512833,66.221283 64.265205,68.034691 63.861450,69.812653 
	C62.604294,75.348511 64.739944,79.143448 70.144264,80.350914 
	C77.054413,81.894821 84.490234,84.758537 90.997177,83.479729 
	C98.666130,81.972572 105.011543,80.886520 113.005066,83.447853 
	C120.785400,85.940895 129.764633,83.556175 137.590515,79.544830 
	C140.916687,77.839920 141.867676,75.314262 141.578293,71.777504 
	C140.664856,60.613918 136.039581,51.456234 127.618256,44.020149 
	C125.863564,42.470741 124.593903,39.880871 124.040001,37.547531 
	C121.610374,27.312439 116.614983,18.956787 108.058273,12.596600 
	C104.142776,9.686224 101.102699,9.880953 97.382835,12.720909 
	C91.138084,17.488503 86.335876,23.252012 83.492393,30.594894 
	C81.947678,34.583881 81.582687,40.032486 78.700539,42.303612 
	C71.461029,48.008324 68.021782,55.547939 64.831894,64.424088 
M16.590105,131.864441 
	C18.194918,137.689545 23.425224,137.380066 27.813559,138.508850 
	C30.929102,139.310226 33.510990,140.634186 33.242504,144.501144 
	C32.971962,148.397797 30.070421,149.613800 26.993216,149.595551 
	C23.448961,149.574524 19.909962,148.667328 15.225793,147.976425 
	C16.310394,149.531921 16.894529,151.227768 17.645403,151.305145 
	C22.010061,151.754807 26.507845,152.462860 30.777060,151.835129 
	C34.735558,151.253113 36.814213,147.825027 36.731068,143.693344 
	C36.651943,139.761551 34.510128,137.136551 30.756750,135.996918 
	C28.214989,135.225159 25.417807,135.055710 23.091724,133.899139 
	C21.618435,133.166595 19.856546,131.052628 19.947649,129.671921 
	C20.044170,128.209106 22.007702,125.977394 23.466919,125.696243 
	C25.932564,125.221176 28.638983,126.088135 31.252905,126.246567 
	C32.358925,126.313599 33.487091,126.015221 34.605194,125.882935 
	C24.875511,119.639839 17.115753,122.419060 16.590105,131.864441 
M40.922180,159.136063 
	C41.433949,160.320374 41.945721,161.504669 42.457485,162.688980 
	C42.993416,161.526016 43.884079,160.395050 43.992477,159.193527 
	C44.228325,156.579239 44.065289,153.928970 44.065289,150.926270 
	C45.161644,151.306824 45.901348,151.568344 46.644184,151.820663 
	C51.753204,153.555984 56.610458,153.267410 60.338310,149.037064 
	C63.834225,145.069885 64.098846,140.236176 62.183636,135.479919 
	C60.054874,130.193314 55.304230,129.109253 50.285454,129.187714 
	C47.228027,129.235474 44.180141,129.893906 40.922016,130.303986 
	C40.922016,139.991531 40.922016,149.099304 40.922180,159.136063 
M79.441223,149.785080 
	C72.625298,149.171814 70.563148,147.441269 70.265709,141.589264 
	C76.367012,141.589264 82.451241,141.589264 88.438591,141.589264 
	C89.459389,134.454361 87.259552,130.780594 81.553360,129.449158 
	C75.286232,127.986839 68.929733,131.238297 66.971550,136.908020 
	C65.303848,141.736694 66.656868,147.111237 70.287247,150.078751 
	C74.617073,153.618011 81.907913,153.798782 87.483467,150.505112 
	C87.474274,150.041489 87.465073,149.577881 87.455879,149.114258 
	C85.072037,149.327713 82.688202,149.541168 79.441223,149.785080 
M176.498108,152.175034 
	C177.325439,151.781433 178.643234,151.592896 178.906403,150.963440 
	C182.720016,141.841476 186.392227,132.660416 190.098267,123.493484 
	C189.597931,123.159187 189.097610,122.824883 188.597290,122.490578 
	C187.513992,123.848419 186.046600,125.048477 185.412949,126.591019 
	C182.438873,133.830933 179.694031,141.164978 176.318558,149.882721 
	C172.779541,140.971313 169.857117,133.591553 166.915756,126.219345 
	C166.072708,124.106262 165.395264,121.605377 162.106567,123.695816 
	C165.676331,132.363449 169.158951,140.990204 172.834717,149.533859 
	C173.307236,150.632111 174.782410,151.298981 176.498108,152.175034 
M144.196671,152.408981 
	C151.880402,153.461380 158.009186,149.777359 159.046814,143.482529 
	C160.225327,136.332870 156.656296,130.965729 149.694366,129.418213 
	C143.212799,127.977478 136.595139,131.524628 134.939636,137.326950 
	C132.944183,144.320770 135.981491,149.648987 144.196671,152.408981 
M92.317909,138.200958 
	C91.383926,143.391586 92.569656,147.938431 97.184364,150.802612 
	C102.258560,153.951981 107.525696,153.216873 113.867981,150.163467 
	C111.993294,149.479996 111.114609,148.873901 110.266228,148.913696 
	C108.795143,148.982712 107.355843,149.585419 105.880318,149.729126 
	C99.948204,150.306839 95.479416,146.651215 95.285263,141.156418 
	C95.092018,135.687592 98.803810,132.119354 104.851501,132.157440 
	C106.649536,132.168747 108.445137,132.813477 110.240952,132.808914 
	C110.967926,132.807083 111.692467,131.844940 112.795471,131.046677 
	C102.742699,127.227325 96.245880,129.480194 92.317909,138.200958 
M129.780487,129.740372 
	C127.337395,129.740372 124.894302,129.740372 122.234596,129.740372 
	C122.083992,127.768326 121.965218,126.213150 121.801895,124.074600 
	C119.356140,126.940826 117.382599,129.253647 115.409058,131.566483 
	C115.878525,131.455902 116.348000,131.345322 116.817467,131.234741 
	C117.506500,132.981476 118.576096,134.681732 118.796417,136.485703 
	C119.136864,139.273254 118.333336,142.287979 119.062263,144.915848 
	C119.779640,147.502060 121.271103,150.534927 123.377464,151.916367 
	C126.387169,153.890259 129.958344,153.027786 133.953827,149.387192 
	C131.546738,149.387192 130.428619,149.235229 129.365570,149.412872 
	C124.082558,150.295609 122.201118,148.893723 122.056717,143.648788 
	C121.956490,140.008438 122.037430,136.363113 122.037430,132.403229 
	C124.495651,132.403229 126.655739,132.615860 128.730942,132.289246 
	C129.468704,132.173111 130.000275,130.746826 129.780487,129.740372 
z"/>
<path fill="#41474D" opacity="1.000000" stroke="none" 
	d="
M64.905128,64.024231 
	C68.021782,55.547939 71.461029,48.008324 78.700539,42.303612 
	C81.582687,40.032486 81.947678,34.583881 83.492393,30.594894 
	C86.335876,23.252012 91.138084,17.488503 97.382835,12.720909 
	C101.102699,9.880953 104.142776,9.686224 108.058273,12.596600 
	C116.614983,18.956787 121.610374,27.312439 124.040001,37.547531 
	C124.593903,39.880871 125.863564,42.470741 127.618256,44.020149 
	C136.039581,51.456234 140.664856,60.613918 141.578293,71.777504 
	C141.867676,75.314262 140.916687,77.839920 137.590515,79.544830 
	C129.764633,83.556175 120.785400,85.940895 113.005066,83.447853 
	C105.011543,80.886520 98.666130,81.972572 90.997177,83.479729 
	C84.490234,84.758537 77.054413,81.894821 70.144264,80.350914 
	C64.739944,79.143448 62.604294,75.348511 63.861450,69.812653 
	C64.265205,68.034691 64.512833,66.221283 64.905128,64.024231 
M96.684021,63.761436 
	C98.145576,65.997414 99.607132,68.233391 100.919830,70.241638 
	C109.517723,64.482147 113.260689,58.061237 115.009575,50.297825 
	C115.567467,47.821339 115.031136,46.339458 112.278763,45.506424 
	C105.854530,43.562061 99.548073,43.442867 93.122314,45.413200 
	C90.565536,46.197189 89.305740,47.594921 90.341850,50.112534 
	C92.161957,54.535149 94.247726,58.848431 96.684021,63.761436 
M80.420166,74.160164 
	C84.464790,74.160164 88.509415,74.160164 92.451981,74.160164 
	C88.367828,67.006874 84.578239,60.369507 80.369240,52.997547 
	C78.338005,56.701927 75.799652,60.357929 74.238045,64.392029 
	C71.429901,71.646309 71.813087,71.987389 80.420166,74.160164 
M116.630417,68.071968 
	C115.193741,69.836151 113.757072,71.600334 112.320404,73.364517 
	C112.469872,73.924408 112.619339,74.484306 112.768814,75.044197 
	C118.369125,74.385468 123.996025,73.881706 129.546066,72.929863 
	C130.585938,72.751534 132.171310,70.682411 132.052719,69.653137 
	C131.342041,63.484631 129.056946,57.962139 124.325714,53.726505 
	C121.799713,58.494781 119.420441,62.986069 116.630417,68.071968 
M99.428406,22.643856 
	C96.513931,26.785091 93.599457,30.926327 90.315453,35.592636 
	C99.213814,35.592636 106.521431,35.592636 115.429291,35.592636 
	C111.727158,30.621700 108.587891,26.331635 105.363152,22.106817 
	C103.634811,19.842484 101.786118,20.315586 99.428406,22.643856 
z"/>
<path fill="#D65C6E" opacity="1.000000" stroke="none" 
	d="
M101.011299,85.038002 
	C101.755096,85.074020 102.498886,85.110031 103.863083,85.308838 
	C105.324051,85.643448 106.164619,85.815269 107.005188,85.987091 
	C108.558746,87.490273 110.112305,88.993454 111.871895,91.048630 
	C112.370201,92.097336 112.662483,92.594055 112.954758,93.090767 
	C112.915741,94.697685 112.876732,96.304604 112.647369,98.465988 
	C112.376793,99.342957 112.296562,99.665459 112.216324,99.987946 
	C111.797195,100.653687 111.378075,101.319427 110.578751,102.391144 
	C109.430687,103.513969 108.662827,104.230820 107.894966,104.947662 
	C100.604851,107.156960 97.375206,106.191841 92.993729,100.011978 
	C92.570847,99.203316 92.357765,98.940086 92.144691,98.676849 
	C92.109123,98.299065 92.073547,97.921288 92.007843,97.021149 
	C91.935303,96.333252 91.892899,96.167709 91.850502,96.002159 
	C91.963638,95.058533 92.076782,94.114906 92.413605,92.629501 
	C92.732361,91.726807 92.827446,91.365883 92.922531,91.004967 
	C92.922539,91.004967 93.132721,90.727325 93.379929,90.389862 
	C93.771286,89.708527 93.915436,89.364655 94.059586,89.020782 
	C94.629356,88.546654 95.199127,88.072533 96.183289,87.287384 
	C96.860611,86.704391 97.123543,86.432411 97.386475,86.160423 
	C97.386475,86.160423 97.720520,86.173935 98.189743,86.101730 
	C99.443069,85.699013 100.227180,85.368507 101.011299,85.038002 
z"/>
<path fill="#F7C860" opacity="1.000000" stroke="none" 
	d="
M147.182587,40.049664 
	C146.309402,40.978344 145.436218,41.907021 143.902496,43.008587 
	C136.357437,45.018528 131.376312,42.957237 129.280228,37.403851 
	C127.386948,32.387730 129.851013,26.682297 134.806702,24.607529 
	C140.353043,22.285473 144.435547,24.134968 148.945602,31.012896 
	C148.976517,31.462194 149.007416,31.911495 149.031921,33.061035 
	C148.411209,35.857403 147.796890,37.953529 147.182587,40.049664 
z"/>
<path fill="#212221" opacity="1.000000" stroke="none" 
	d="
M16.489292,131.502472 
	C17.115753,122.419060 24.875511,119.639839 34.605194,125.882935 
	C33.487091,126.015221 32.358925,126.313599 31.252905,126.246567 
	C28.638983,126.088135 25.932564,125.221176 23.466919,125.696243 
	C22.007702,125.977394 20.044170,128.209106 19.947649,129.671921 
	C19.856546,131.052628 21.618435,133.166595 23.091724,133.899139 
	C25.417807,135.055710 28.214989,135.225159 30.756750,135.996918 
	C34.510128,137.136551 36.651943,139.761551 36.731068,143.693344 
	C36.814213,147.825027 34.735558,151.253113 30.777060,151.835129 
	C26.507845,152.462860 22.010061,151.754807 17.645403,151.305145 
	C16.894529,151.227768 16.310394,149.531921 15.225793,147.976425 
	C19.909962,148.667328 23.448961,149.574524 26.993216,149.595551 
	C30.070421,149.613800 32.971962,148.397797 33.242504,144.501144 
	C33.510990,140.634186 30.929102,139.310226 27.813559,138.508850 
	C23.425224,137.380066 18.194918,137.689545 16.489292,131.502472 
z"/>
<path fill="#1A1C1B" opacity="1.000000" stroke="none" 
	d="
M40.922096,158.671570 
	C40.922016,149.099304 40.922016,139.991531 40.922016,130.303986 
	C44.180141,129.893906 47.228027,129.235474 50.285454,129.187714 
	C55.304230,129.109253 60.054874,130.193314 62.183636,135.479919 
	C64.098846,140.236176 63.834225,145.069885 60.338310,149.037064 
	C56.610458,153.267410 51.753204,153.555984 46.644184,151.820663 
	C45.901348,151.568344 45.161644,151.306824 44.065289,150.926270 
	C44.065289,153.928970 44.228325,156.579239 43.992477,159.193527 
	C43.884079,160.395050 42.993416,161.526016 42.457489,162.688980 
	C41.945721,161.504669 41.433949,160.320374 40.922096,158.671570 
M44.065418,134.938782 
	C44.058296,137.426056 44.258392,139.935455 43.995651,142.395432 
	C43.597973,146.118790 44.883091,148.351852 48.628670,149.305176 
	C52.554081,150.304291 55.913971,149.704437 58.388058,146.378540 
	C60.917740,142.977921 60.465820,137.143402 57.651939,134.386841 
	C54.557228,131.355164 48.108253,131.188141 44.065418,134.938782 
z"/>
<path fill="#212322" opacity="1.000000" stroke="none" 
	d="
M79.872787,149.769852 
	C82.688202,149.541168 85.072037,149.327713 87.455879,149.114258 
	C87.465073,149.577881 87.474274,150.041489 87.483467,150.505112 
	C81.907913,153.798782 74.617073,153.618011 70.287247,150.078751 
	C66.656868,147.111237 65.303848,141.736694 66.971550,136.908020 
	C68.929733,131.238297 75.286232,127.986839 81.553360,129.449158 
	C87.259552,130.780594 89.459389,134.454361 88.438591,141.589264 
	C82.451241,141.589264 76.367012,141.589264 70.265709,141.589264 
	C70.563148,147.441269 72.625298,149.171814 79.872787,149.769852 
M83.826775,138.899933 
	C88.018204,137.036057 84.980904,134.826584 83.656227,133.608261 
	C79.342758,129.641144 71.646027,132.546982 70.085014,138.904312 
	C74.437157,138.904312 78.695984,138.904312 83.826775,138.899933 
z"/>
<path fill="#1D1F1E" opacity="1.000000" stroke="none" 
	d="
M176.145599,152.170364 
	C174.782410,151.298981 173.307236,150.632111 172.834717,149.533859 
	C169.158951,140.990204 165.676331,132.363449 162.106567,123.695816 
	C165.395264,121.605377 166.072708,124.106262 166.915756,126.219345 
	C169.857117,133.591553 172.779541,140.971313 176.318558,149.882721 
	C179.694031,141.164978 182.438873,133.830933 185.412949,126.591019 
	C186.046600,125.048477 187.513992,123.848419 188.597290,122.490578 
	C189.097610,122.824883 189.597931,123.159187 190.098267,123.493484 
	C186.392227,132.660416 182.720016,141.841476 178.906403,150.963440 
	C178.643234,151.592896 177.325439,151.781433 176.145599,152.170364 
z"/>
<path fill="#1E201F" opacity="1.000000" stroke="none" 
	d="
M143.812988,152.314484 
	C135.981491,149.648987 132.944183,144.320770 134.939636,137.326950 
	C136.595139,131.524628 143.212799,127.977478 149.694366,129.418213 
	C156.656296,130.965729 160.225327,136.332870 159.046814,143.482529 
	C158.009186,149.777359 151.880402,153.461380 143.812988,152.314484 
M137.756470,141.419693 
	C138.879578,147.680496 142.530121,150.567078 148.400833,149.836456 
	C153.275833,149.229736 156.190628,145.594391 155.963287,140.404510 
	C155.752319,135.588135 152.622070,132.392883 147.772766,132.043884 
	C141.966476,131.626007 138.849991,134.282501 137.756470,141.419693 
z"/>
<path fill="#1F201F" opacity="1.000000" stroke="none" 
	d="
M92.461945,137.829605 
	C96.245880,129.480194 102.742699,127.227325 112.795471,131.046677 
	C111.692467,131.844940 110.967926,132.807083 110.240952,132.808914 
	C108.445137,132.813477 106.649536,132.168747 104.851501,132.157440 
	C98.803810,132.119354 95.092018,135.687592 95.285263,141.156418 
	C95.479416,146.651215 99.948204,150.306839 105.880318,149.729126 
	C107.355843,149.585419 108.795143,148.982712 110.266228,148.913696 
	C111.114609,148.873901 111.993294,149.479996 113.867981,150.163467 
	C107.525696,153.216873 102.258560,153.951981 97.184364,150.802612 
	C92.569656,147.938431 91.383926,143.391586 92.461945,137.829605 
z"/>
<path fill="#151716" opacity="1.000000" stroke="none" 
	d="
M130.203232,129.829498 
	C130.000275,130.746826 129.468704,132.173111 128.730942,132.289246 
	C126.655739,132.615860 124.495651,132.403229 122.037430,132.403229 
	C122.037430,136.363113 121.956490,140.008438 122.056717,143.648788 
	C122.201118,148.893723 124.082558,150.295609 129.365570,149.412872 
	C130.428619,149.235229 131.546738,149.387192 133.953827,149.387192 
	C129.958344,153.027786 126.387169,153.890259 123.377464,151.916367 
	C121.271103,150.534927 119.779640,147.502060 119.062263,144.915848 
	C118.333336,142.287979 119.136864,139.273254 118.796417,136.485703 
	C118.576096,134.681732 117.506500,132.981476 116.817467,131.234741 
	C116.348000,131.345322 115.878525,131.455902 115.409058,131.566483 
	C117.382599,129.253647 119.356140,126.940826 121.801895,124.074600 
	C121.965218,126.213150 122.083992,127.768326 122.234596,129.740372 
	C124.894302,129.740372 127.337395,129.740372 130.203232,129.829498 
z"/>
<path fill="#FDF7DE" opacity="1.000000" stroke="none" 
	d="
M149.207779,30.821329 
	C144.435547,24.134968 140.353043,22.285473 134.806702,24.607529 
	C129.851013,26.682297 127.386948,32.387730 129.280228,37.403851 
	C131.376312,42.957237 136.357437,45.018528 143.640610,43.192863 
	C141.323410,46.328114 134.141739,46.973457 131.312103,44.118858 
	C129.374542,42.164219 127.693680,39.916252 126.126038,37.642254 
	C123.266350,33.494026 126.070282,29.752249 128.588196,27.607227 
	C132.023590,24.680611 136.716049,21.699776 140.915161,21.633543 
	C145.040649,21.568470 149.457748,24.905838 149.207779,30.821329 
z"/>
<path fill="#65A5AC" opacity="1.000000" stroke="none" 
	d="
M56.824936,30.000925 
	C56.824936,30.000925 57.016907,29.616920 57.258926,29.270815 
	C57.616653,28.618698 57.732365,28.312687 57.848076,28.006676 
	C57.848080,28.006676 58.068489,27.718512 58.345879,27.389744 
	C58.797192,26.736740 58.971115,26.412502 59.145039,26.088264 
	C59.145039,26.088264 59.052486,26.053148 59.332664,26.011364 
	C59.835495,25.683901 60.058144,25.398222 60.280792,25.112545 
	C60.755924,24.897717 61.231056,24.682886 62.146484,24.196499 
	C62.890255,23.683701 63.193729,23.442457 63.497204,23.201216 
	C63.497204,23.201216 63.731251,23.333181 64.261162,23.285084 
	C69.473381,22.613703 72.892914,24.926554 75.966675,28.043386 
	C75.966675,28.043386 75.998093,27.998493 76.034286,28.410627 
	C78.201828,33.696709 76.872406,37.944679 73.712082,41.861485 
	C73.387329,41.957142 73.062576,42.052799 72.403336,42.106342 
	C72.068840,42.064228 71.906242,41.901314 71.984200,41.548561 
	C72.581367,40.358028 73.126289,39.534962 73.615540,38.680035 
	C76.385559,33.839611 75.254051,29.299355 70.546112,26.306416 
	C66.832748,23.945747 62.424915,25.150816 59.817474,29.944244 
	C58.564644,32.247410 58.605476,35.254280 57.984795,38.015213 
	C57.909130,38.087955 57.757919,38.233574 57.569138,38.169304 
	C57.380360,38.105038 56.990284,38.021915 56.990284,38.021915 
	C56.990284,38.021915 57.003849,38.002743 56.996895,37.675804 
	C56.720016,36.545532 56.450092,35.742203 56.180168,34.938873 
	C56.187428,34.516403 56.194687,34.093937 56.365288,33.108482 
	C56.627396,31.697308 56.726166,30.849115 56.824936,30.000925 
z"/>
<path fill="#E3F8FA" opacity="1.000000" stroke="none" 
	d="
M74.113426,41.897247 
	C76.872406,37.944679 78.201828,33.696709 76.011688,28.426323 
	C80.027855,28.478359 78.845749,31.649300 78.961082,34.030182 
	C79.130791,37.533298 78.540245,40.732998 74.113426,41.897247 
z"/>
<path fill="#65A5AC" opacity="1.000000" stroke="none" 
	d="
M63.990776,44.013054 
	C63.990776,44.013054 63.690662,43.853230 63.352753,43.641220 
	C62.676620,43.323124 62.338394,43.217037 62.000168,43.110950 
	C60.910446,42.167572 59.820724,41.224190 58.411827,39.818619 
	C57.981075,38.982143 57.869495,38.607857 57.757919,38.233574 
	C57.757919,38.233574 57.909130,38.087955 58.333797,38.079002 
	C62.375645,41.973808 66.948143,42.599201 71.906242,41.901314 
	C71.906242,41.901314 72.068840,42.064228 72.151802,42.144798 
	C72.234764,42.225368 72.115677,42.599689 71.657806,42.836014 
	C68.796890,43.385910 66.393829,43.699482 63.990776,44.013054 
z"/>
<path fill="#E3F8FA" opacity="1.000000" stroke="none" 
	d="
M75.979126,27.668209 
	C72.892914,24.926554 69.473381,22.613703 64.379997,23.222424 
	C70.137466,20.035917 73.775406,21.272053 75.979126,27.668209 
z"/>
<path fill="#FDF7DE" opacity="1.000000" stroke="none" 
	d="
M147.547546,40.033913 
	C147.796890,37.953529 148.411209,35.857403 149.103699,33.391483 
	C150.876572,35.738098 153.087204,38.548119 147.547546,40.033913 
z"/>
<path fill="#E3F8FA" opacity="1.000000" stroke="none" 
	d="
M64.263672,44.298256 
	C66.393829,43.699482 68.796890,43.385910 71.596558,43.022621 
	C70.215424,46.786663 67.127899,44.536411 64.263672,44.298256 
z"/>
<path fill="#F7EAEC" opacity="1.000000" stroke="none" 
	d="
M106.961060,85.661514 
	C106.164619,85.815269 105.324051,85.643448 104.233200,85.264236 
	C104.960915,85.149864 105.938927,85.242897 106.961060,85.661514 
z"/>
<path fill="#F7EAEC" opacity="1.000000" stroke="none" 
	d="
M100.847244,84.795532 
	C100.227180,85.368507 99.443069,85.699013 98.329666,86.010300 
	C98.894653,85.511734 99.788925,85.032394 100.847244,84.795532 
z"/>
<path fill="#E3F8FA" opacity="1.000000" stroke="none" 
	d="
M55.918221,35.091434 
	C56.450092,35.742203 56.720016,36.545532 56.985531,37.675999 
	C56.539505,37.083424 56.097889,36.163708 55.918221,35.091434 
z"/>
<path fill="#E3F8FA" opacity="1.000000" stroke="none" 
	d="
M56.567574,30.149607 
	C56.726166,30.849115 56.627396,31.697308 56.324036,32.793831 
	C56.183029,32.127541 56.246620,31.212915 56.567574,30.149607 
z"/>
<path fill="#F7EAEC" opacity="1.000000" stroke="none" 
	d="
M108.283875,104.962524 
	C108.662827,104.230820 109.430687,103.513969 110.494186,102.674309 
	C110.084145,103.360130 109.378464,104.168762 108.283875,104.962524 
z"/>
<path fill="#F7EAEC" opacity="1.000000" stroke="none" 
	d="
M112.971710,92.786819 
	C112.662483,92.594055 112.370201,92.097336 112.083481,91.304626 
	C112.388908,91.500031 112.688782,91.991447 112.971710,92.786819 
z"/>
<path fill="#E3F8FA" opacity="1.000000" stroke="none" 
	d="
M57.569138,38.169304 
	C57.869495,38.607857 57.981075,38.982143 58.158737,39.642647 
	C57.825836,39.501774 57.426849,39.074684 57.009071,38.334755 
	C56.990284,38.021915 57.380360,38.105038 57.569138,38.169304 
z"/>
<path fill="#F7EAEC" opacity="1.000000" stroke="none" 
	d="
M92.150642,98.937645 
	C92.357765,98.940086 92.570847,99.203316 92.788483,99.726593 
	C92.580887,99.723900 92.368736,99.461166 92.150642,98.937645 
z"/>
<path fill="#F7EAEC" opacity="1.000000" stroke="none" 
	d="
M112.415253,99.830894 
	C112.296562,99.665459 112.376793,99.342957 112.664215,98.867157 
	C112.785660,99.033844 112.699921,99.353844 112.415253,99.830894 
z"/>
<path fill="#F7EAEC" opacity="1.000000" stroke="none" 
	d="
M91.701660,96.096428 
	C91.892899,96.167709 91.935303,96.333252 91.921234,96.748825 
	C91.760788,96.729462 91.656807,96.460083 91.701660,96.096428 
z"/>
<path fill="#F7EAEC" opacity="1.000000" stroke="none" 
	d="
M97.088120,86.193359 
	C97.123543,86.432411 96.860611,86.704391 96.317612,87.041199 
	C96.288284,86.812782 96.539024,86.519539 97.088120,86.193359 
z"/>
<path fill="#F7EAEC" opacity="1.000000" stroke="none" 
	d="
M92.690140,91.178085 
	C92.827446,91.365883 92.732361,91.726807 92.417336,92.272507 
	C92.284172,92.088593 92.370956,91.719902 92.690140,91.178085 
z"/>
<path fill="#E3F8FA" opacity="1.000000" stroke="none" 
	d="
M57.640839,28.144571 
	C57.732365,28.312687 57.616653,28.618698 57.287178,29.058025 
	C57.065563,28.837637 57.185627,28.534679 57.640839,28.144571 
z"/>
<path fill="#E3F8FA" opacity="1.000000" stroke="none" 
	d="
M58.871929,26.200037 
	C58.971115,26.412502 58.797192,26.736740 58.385166,27.212654 
	C58.297649,27.013489 58.448235,26.662649 58.871929,26.200037 
z"/>
<path fill="#E3F8FA" opacity="1.000000" stroke="none" 
	d="
M60.001518,25.174072 
	C60.058144,25.398222 59.835495,25.683901 59.351898,26.056969 
	C59.301384,25.841438 59.511810,25.538519 60.001518,25.174072 
z"/>
<path fill="#E3F8FA" opacity="1.000000" stroke="none" 
	d="
M62.160995,43.331924 
	C62.338394,43.217037 62.676620,43.323124 63.182770,43.643940 
	C63.007732,43.756748 62.664776,43.654823 62.160995,43.331924 
z"/>
<path fill="#E3F8FA" opacity="1.000000" stroke="none" 
	d="
M63.188828,23.213861 
	C63.193729,23.442457 62.890255,23.683701 62.297581,23.980434 
	C62.299068,23.766119 62.589760,23.496313 63.188828,23.213861 
z"/>
<path fill="#F7EAEC" opacity="1.000000" stroke="none" 
	d="
M93.801590,89.161362 
	C93.915436,89.364655 93.771286,89.708527 93.393173,90.216255 
	C93.287331,90.020721 93.415459,89.661331 93.801590,89.161362 
z"/>
<path fill="#F8F9F9" opacity="1.000000" stroke="none" 
	d="
M96.453125,63.484470 
	C94.247726,58.848431 92.161957,54.535149 90.341850,50.112534 
	C89.305740,47.594921 90.565536,46.197189 93.122314,45.413200 
	C99.548073,43.442867 105.854530,43.562061 112.278763,45.506424 
	C115.031136,46.339458 115.567467,47.821339 115.009575,50.297825 
	C113.260689,58.061237 109.517723,64.482147 100.919830,70.241638 
	C99.607132,68.233391 98.145576,65.997414 96.453125,63.484470 
z"/>
<path fill="#F3F5F6" opacity="1.000000" stroke="none" 
	d="
M80.001678,74.100388 
	C71.813087,71.987389 71.429901,71.646309 74.238045,64.392029 
	C75.799652,60.357929 78.338005,56.701927 80.369240,52.997547 
	C84.578239,60.369507 88.367828,67.006874 92.451981,74.160164 
	C88.509415,74.160164 84.464790,74.160164 80.001678,74.100388 
z"/>
<path fill="#F5F7F7" opacity="1.000000" stroke="none" 
	d="
M116.835800,67.774658 
	C119.420441,62.986069 121.799713,58.494781 124.325714,53.726505 
	C129.056946,57.962139 131.342041,63.484631 132.052719,69.653137 
	C132.171310,70.682411 130.585938,72.751534 129.546066,72.929863 
	C123.996025,73.881706 118.369125,74.385468 112.768814,75.044197 
	C112.619339,74.484306 112.469872,73.924408 112.320404,73.364517 
	C113.757072,71.600334 115.193741,69.836151 116.835800,67.774658 
z"/>
<path fill="#F5F7F8" opacity="1.000000" stroke="none" 
	d="
M99.723297,22.397152 
	C101.786118,20.315586 103.634811,19.842484 105.363152,22.106817 
	C108.587891,26.331635 111.727158,30.621700 115.429291,35.592636 
	C106.521431,35.592636 99.213814,35.592636 90.315453,35.592636 
	C93.599457,30.926327 96.513931,26.785091 99.723297,22.397152 
z"/>
<path fill="#F5F6F6" opacity="1.000000" stroke="none" 
	d="
M44.089607,134.487488 
	C48.108253,131.188141 54.557228,131.355164 57.651939,134.386841 
	C60.465820,137.143402 60.917740,142.977921 58.388058,146.378540 
	C55.913971,149.704437 52.554081,150.304291 48.628670,149.305176 
	C44.883091,148.351852 43.597973,146.118790 43.995651,142.395432 
	C44.258392,139.935455 44.058296,137.426056 44.089607,134.487488 
z"/>
<path fill="#EDEEEE" opacity="1.000000" stroke="none" 
	d="
M83.390793,138.902130 
	C78.695984,138.904312 74.437157,138.904312 70.085014,138.904312 
	C71.646027,132.546982 79.342758,129.641144 83.656227,133.608261 
	C84.980904,134.826584 88.018204,137.036057 83.390793,138.902130 
z"/>
<path fill="#F5F6F6" opacity="1.000000" stroke="none" 
	d="
M137.756409,141.000778 
	C138.849991,134.282501 141.966476,131.626007 147.772766,132.043884 
	C152.622070,132.392883 155.752319,135.588135 155.963287,140.404510 
	C156.190628,145.594391 153.275833,149.229736 148.400833,149.836456 
	C142.530121,150.567078 138.879578,147.680496 137.756409,141.000778 
z"/>
<path fill="#46A9B6" opacity="1.000000" stroke="none" 
	d="
M71.984200,41.548561 
	C66.948143,42.599201 62.375645,41.973808 58.409462,38.006260 
	C58.605476,35.254280 58.564644,32.247410 59.817474,29.944244 
	C62.424915,25.150816 66.832748,23.945747 70.546112,26.306416 
	C75.254051,29.299355 76.385559,33.839611 73.615540,38.680035 
	C73.126289,39.534962 72.581367,40.358028 71.984200,41.548561 
z"/>
</svg>